<svg id="Proofme_Logo" data-name="Proofme Logo" xmlns="http://www.w3.org/2000/svg" xmlns:xlink="http://www.w3.org/1999/xlink" width="172.639" height="31.516" viewBox="0 0 172.639 31.516">
  <defs>
    <clipPath id="clip-path">
      <rect id="Rectangle_75" data-name="Rectangle 75" width="172.639" height="31.516" fill="none"/>
    </clipPath>
  </defs>
  <g id="Group_73" data-name="Group 73" transform="translate(0 0)" clip-path="url(#clip-path)">
    <path id="Path_82" data-name="Path 82" d="M221.649,37.052a2.594,2.594,0,0,0,2.774-2.816V23.261c0-7.405-4.2-8.959-7.727-8.959a8.672,8.672,0,0,0-4.626,1.248,8.087,8.087,0,0,0-1.846,1.555l-.094.107-.08-.116a6.87,6.87,0,0,0-6.04-2.794,8.178,8.178,0,0,0-4.29,1.12,7.345,7.345,0,0,0-.856.6l-.12.1-.054-.144a2.493,2.493,0,0,0-2.537-1.594,2.539,2.539,0,0,0-2.694,2.778V34.236a2.756,2.756,0,1,0,5.51,0V24.408a5.983,5.983,0,0,1,1.161-3.889,3.663,3.663,0,0,1,3.02-1.317c1.661,0,2.134.638,2.29.848a5.644,5.644,0,0,1,.746,3.376v10.81a2.756,2.756,0,1,0,5.51,0V24.408a5.833,5.833,0,0,1,1.177-3.883,3.675,3.675,0,0,1,3-1.323c1.661,0,2.135.638,2.291.848a5.651,5.651,0,0,1,.744,3.376v10.81a2.576,2.576,0,0,0,2.735,2.816" transform="translate(-74.948 -5.536)" fill="#121a4f"/>
    <path id="Path_83" data-name="Path 83" d="M266.346,17.139a9.1,9.1,0,0,0-7.167-2.973,10.6,10.6,0,0,0-5.536,1.446,10.13,10.13,0,0,0-3.786,4.079,12.7,12.7,0,0,0-1.351,5.933,11.289,11.289,0,0,0,3.061,8.286A11.113,11.113,0,0,0,259.794,37a14.329,14.329,0,0,0,3.924-.576,11.251,11.251,0,0,0,3.555-1.682,2.552,2.552,0,0,0,1.291-2.249,2.361,2.361,0,0,0-1.2-2.045,2.525,2.525,0,0,0-2.727.275,7.388,7.388,0,0,1-2.368,1.1,10.221,10.221,0,0,1-2.475.314,5.7,5.7,0,0,1-4.222-1.464,5.72,5.72,0,0,1-1.5-3.171l-.022-.129h12.334a2.276,2.276,0,0,0,2.531-2.368,11.537,11.537,0,0,0-2.566-7.871m-12.18,5.872.036-.139a5.959,5.959,0,0,1,1.4-2.643,4.712,4.712,0,0,1,3.657-1.409,4.075,4.075,0,0,1,3.284,1.3,5.554,5.554,0,0,1,1.18,2.763l.022.129Z" transform="translate(-96.273 -5.483)" fill="#121a4f"/>
    <path id="Path_84" data-name="Path 84" d="M80.44,14.219c-.1,0-.2,0-.3.014A9.529,9.529,0,0,0,75.6,15.465a7.378,7.378,0,0,0-.884.606l-.123.1-.051-.149a2.513,2.513,0,0,0-2.564-1.669,2.539,2.539,0,0,0-2.694,2.778V34.2a2.776,2.776,0,1,0,5.551,0V24.295A4.72,4.72,0,0,1,76,20.858a5.5,5.5,0,0,1,3.6-1.448l.7-.085a2.451,2.451,0,0,0,2.431-2.78v0a2.22,2.22,0,0,0-2.287-2.322" transform="translate(-26.84 -5.504)" fill="#1b89c4"/>
    <path id="Path_85" data-name="Path 85" d="M111.413,31.544a13.123,13.123,0,0,0,1.285-5.961,13.133,13.133,0,0,0-1.285-5.962,9.631,9.631,0,0,0-3.736-4.033,11.665,11.665,0,0,0-11.166,0A9.67,9.67,0,0,0,92.8,19.621a13.15,13.15,0,0,0-1.283,5.961A13.15,13.15,0,0,0,92.8,31.544a9.661,9.661,0,0,0,3.714,4.032,11.664,11.664,0,0,0,11.166,0,9.611,9.611,0,0,0,3.736-4.034m-5.684-1a4.932,4.932,0,0,1-7.262,0,7.624,7.624,0,0,1-1.4-4.967,7.618,7.618,0,0,1,1.4-4.983,4.975,4.975,0,0,1,7.27.006,7.541,7.541,0,0,1,1.414,4.977,7.55,7.55,0,0,1-1.418,4.962" transform="translate(-35.454 -5.483)" fill="#1b89c4"/>
    <path id="Path_86" data-name="Path 86" d="M145.543,15.588a11.664,11.664,0,0,0-11.166,0,9.669,9.669,0,0,0-3.713,4.032,13.15,13.15,0,0,0-1.283,5.961,13.16,13.16,0,0,0,1.283,5.961,9.662,9.662,0,0,0,3.714,4.032,11.664,11.664,0,0,0,11.166,0,9.615,9.615,0,0,0,3.736-4.034,13.123,13.123,0,0,0,1.285-5.961,13.13,13.13,0,0,0-1.285-5.962,9.632,9.632,0,0,0-3.736-4.033m-1.948,14.957a4.933,4.933,0,0,1-7.262,0,7.627,7.627,0,0,1-1.4-4.967,7.616,7.616,0,0,1,1.4-4.983,4.975,4.975,0,0,1,7.27.006,7.542,7.542,0,0,1,1.414,4.977,7.552,7.552,0,0,1-1.418,4.962" transform="translate(-50.123 -5.483)" fill="#1b89c4"/>
    <path id="Path_87" data-name="Path 87" d="M181.094,2.266A2.482,2.482,0,0,0,180.471.7a2.3,2.3,0,0,0-1.947-.694l-1.239.127c-5.367.469-8.293,3.545-8.465,8.894l0,.107h-1.526A2.276,2.276,0,0,0,164.76,11.5a2.293,2.293,0,0,0,2.531,2.407h1.521V28.7a2.756,2.756,0,1,0,5.51,0V13.91h3.321a2.293,2.293,0,0,0,2.531-2.407,2.276,2.276,0,0,0-2.531-2.368h-3.322V9.023a4.68,4.68,0,0,1,.86-3.03,4.131,4.131,0,0,1,2.879-1.136l.945-.082a2.137,2.137,0,0,0,1.623-.913,2.574,2.574,0,0,0,.464-1.6" transform="translate(-63.83 0)" fill="#1b89c4"/>
    <path id="Path_88" data-name="Path 88" d="M19.907,31.623a2.614,2.614,0,0,0,2.775-2.857V19.834h7.529a9.664,9.664,0,0,0,9.65-9.656V9.932A9.664,9.664,0,0,0,30.211.276H17.13v14.4H10.219a4.6,4.6,0,0,1,0-9.2l2.6,0V.277L9.183.294,9.107.31A9.654,9.654,0,0,0,0,9.951V10.2a9.664,9.664,0,0,0,9.65,9.656h7.48v8.912a2.614,2.614,0,0,0,2.776,2.857M22.682,5.451h6.961a4.6,4.6,0,0,1,0,9.2H22.682Z" transform="translate(0 -0.107)" fill="#1b89c4"/>
  </g>
</svg>
